<svg width="1920" height="1117" viewBox="0 0 1920 1117" fill="none" xmlns="http://www.w3.org/2000/svg">
<g clip-path="url(#clip0_83_6886)">
<rect width="1920" height="1117" fill="white"/>
<rect x="1914" y="1147" width="1920" height="421" transform="rotate(-180 1914 1147)" fill="url(#paint0_linear_83_6886)"/>
<rect x="-101" y="-125" width="933" height="1129" fill="url(#paint1_linear_83_6886)"/>
<rect width="933" height="1129" transform="matrix(4.37114e-08 -1 -1 -4.37114e-08 1934 1123)" fill="url(#paint2_linear_83_6886)"/>
<rect width="987" height="682.008" transform="matrix(-1 -8.74228e-08 -8.74228e-08 1 2045 -0.555908)" fill="url(#paint3_radial_83_6886)"/>
<rect width="987" height="508" transform="matrix(-1 -8.74228e-08 -8.74228e-08 1 1378 -48)" fill="url(#paint4_radial_83_6886)"/>
<rect width="1085" height="735.662" transform="matrix(-1 -8.74228e-08 -8.74228e-08 1 1018.14 -9.99988)" fill="url(#paint5_radial_83_6886)"/>
<rect width="1334" height="1010" transform="matrix(-1 -8.74228e-08 -8.74228e-08 1 2587 0)" fill="url(#paint6_radial_83_6886)"/>
<path d="M222.38 438.56C259.74 438.56 297.15 434.74 333.57 427.21L334.08 427.1L334.08 307.6C522.77 257.06 654.51 85.4902 654.51 -109.81L654.51 -110.45L544.11 -110.45L544.11 -764L332.81 -764L332.81 -7.93985L403.79 -7.93984C366.82 57.6402 297.42 98.3401 222.38 98.3401L221.74 98.3401L221.74 206.09C48.0501 205.74 -93.1899 64.5101 -93.5299 -109.18L14.2201 -109.18L14.2201 -109.82C14.2201 -224.59 107.6 -317.97 222.37 -317.97L223.01 -317.97L223.01 -541.95L222.37 -541.95C27.4701 -541.95 -144.02 -410.54 -194.82 -222.31L-314.36 -222.31L-314.47 -221.8C-322.12 -185.07 -326 -147.39 -326 -109.81C-326 192.56 -80 438.56 222.38 438.56ZM223.02 207.37C260.68 207.3 297.61 200.61 332.81 187.5L332.81 306.63C329.71 307.45 326.58 308.21 323.54 308.94C320.91 309.58 318.27 310.18 315.63 310.77L314.3 311.07C311.65 311.66 308.91 312.27 306.2 312.8C301.49 313.74 296.57 314.62 291.18 315.49C288.61 315.9 286.04 316.27 283.45 316.64C279.17 317.25 274.74 317.82 270.29 318.32C269.59 318.4 268.9 318.48 268.21 318.57C267.23 318.69 266.24 318.81 265.25 318.91C259.8 319.46 253.82 319.91 246.97 320.31C245.27 320.41 243.56 320.49 241.85 320.56C234.68 320.88 228.67 321.04 223.01 321.05L223.01 207.37L223.02 207.37ZM334.09 -762.72L542.84 -762.72L542.84 -110.45L430.53 -110.45L430.53 -109.81C430.53 -106.02 430.4 -101.96 430.13 -97.3899C430.08 -96.5598 430.01 -95.7299 429.95 -94.8999L429.86 -93.7298C429.62 -90.5898 429.33 -87.6799 428.99 -84.8399C428.84 -83.5899 428.69 -82.3498 428.52 -81.1198C428.07 -77.8698 427.53 -74.5899 426.93 -71.3599C426.87 -71.0398 426.81 -70.7198 426.76 -70.3899C426.69 -69.9798 426.62 -69.5698 426.54 -69.1598C425.7 -64.9298 424.75 -60.8098 423.73 -56.9298L423.6 -56.4598C422.63 -52.8098 421.53 -49.1198 420.24 -45.1798C420.09 -44.7298 419.94 -44.2699 419.78 -43.8198L419.54 -43.1099C418.37 -39.6799 417.13 -36.3099 415.86 -33.1099L415.62 -32.4898C415.5 -32.1798 415.38 -31.8798 415.25 -31.5698C412.12 -23.8798 408.53 -16.3899 404.56 -9.21984L334.12 -9.21985L334.12 -762.73L334.09 -762.72ZM542.84 -109.17L542.84 -9.20982L405.96 -9.20983C409.8 -16.1998 413.32 -23.5398 416.39 -31.0799C416.52 -31.3899 416.64 -31.7098 416.76 -32.0198L417 -32.6298C418.29 -35.8599 419.53 -39.2399 420.71 -42.6998L420.95 -43.4098C421.11 -43.8698 421.26 -44.3198 421.41 -44.7798C422.71 -48.7398 423.82 -52.4598 424.8 -56.1298L424.93 -56.6099C425.96 -60.5199 426.91 -64.6598 427.76 -68.9199C427.84 -69.3399 427.92 -69.7598 427.99 -70.1798C428.04 -70.4998 428.1 -70.8098 428.16 -71.1298C428.77 -74.3698 429.31 -77.6798 429.76 -80.9498C429.93 -82.1998 430.09 -83.4398 430.24 -84.6998C430.58 -87.5598 430.87 -90.4899 431.11 -93.6499L431.2 -94.8098C431.27 -95.6499 431.34 -96.4798 431.39 -97.3198C431.65 -101.66 431.78 -105.54 431.79 -109.18L542.83 -109.18L542.84 -109.17ZM223.02 99.6201C298.52 99.3901 368.27 58.2302 405.27 -7.92983L544.11 -7.92982L544.11 -109.17L653.24 -109.17C652.95 85.1802 521.84 255.85 334.09 306.29L334.09 185.66L333.23 185.98C297.91 199.26 260.84 206.03 223.03 206.1L223.03 99.6101L223.02 99.6201ZM-208.48 -110.44C-208.47 -116.08 -208.31 -122.08 -207.99 -129.25C-207.91 -131.01 -207.83 -132.76 -207.73 -134.51C-207.33 -141.5 -206.89 -147.29 -206.34 -152.73C-206.24 -153.76 -206.11 -154.79 -205.98 -155.81C-205.89 -156.53 -205.8 -157.25 -205.72 -157.97C-205.22 -162.39 -204.68 -166.67 -204.1 -170.71C-203.7 -173.5 -203.29 -176.28 -202.84 -179.05C-202.22 -182.85 -201.52 -186.63 -200.91 -189.83C-200.03 -194.48 -199.03 -199.31 -197.94 -204.17C-197.45 -206.33 -196.96 -208.48 -196.45 -210.63C-195.65 -213.94 -194.78 -217.49 -193.85 -221.02L-74.6299 -221.02C-87.95 -185.56 -94.7399 -148.37 -94.8099 -110.44L-208.49 -110.44L-208.48 -110.44ZM221.74 -540.66L221.74 -319.23C106.76 -318.89 13.2901 -225.42 12.9501 -110.44L-93.5399 -110.44C-93.4599 -148.52 -86.5899 -185.87 -73.1099 -221.44L-72.7799 -222.3L-193.5 -222.3C-142.79 -409.59 27.7901 -540.37 221.74 -540.66ZM-313.32 -221.02L-195.16 -221.02C-196.08 -217.56 -196.92 -214.13 -197.69 -210.93C-198.21 -208.78 -198.7 -206.62 -199.19 -204.45C-200.29 -199.57 -201.29 -194.73 -202.17 -190.06C-202.78 -186.86 -203.48 -183.07 -204.11 -179.25C-204.56 -176.47 -204.97 -173.68 -205.37 -170.89C-205.95 -166.84 -206.5 -162.54 -207 -158.11C-207.08 -157.39 -207.17 -156.67 -207.26 -155.96C-207.39 -154.93 -207.51 -153.89 -207.62 -152.85C-208.17 -147.39 -208.61 -141.58 -209.01 -134.58C-209.11 -132.82 -209.2 -131.06 -209.28 -129.3C-209.62 -121.84 -209.78 -115.64 -209.78 -109.8L-209.78 -109.16L-94.83 -109.16C-94.48 65.2302 47.33 207.04 221.72 207.39L221.72 322.34L222.36 322.34C228.22 322.34 234.43 322.18 241.89 321.84C243.6 321.76 245.31 321.68 247.02 321.59C253.89 321.2 259.89 320.74 265.35 320.19C266.35 320.09 267.34 319.97 268.34 319.85C269.03 319.77 269.72 319.68 270.41 319.61C274.88 319.11 279.32 318.54 283.61 317.93C286.2 317.56 288.78 317.19 291.36 316.77C296.77 315.89 301.7 315.01 306.42 314.07C309.15 313.53 311.89 312.92 314.55 312.33L315.88 312.03C318.53 311.44 321.18 310.83 323.82 310.19C326.76 309.48 329.79 308.75 332.79 307.96L332.79 426.07C296.61 433.52 259.46 437.29 222.36 437.29C-79.31 437.29 -324.74 191.86 -324.74 -109.81C-324.74 -147.13 -320.9 -184.55 -313.34 -221.03L-313.32 -221.02Z" fill="white"/>
<path d="M1648.13 605C1610.77 605 1573.36 608.82 1536.94 616.35L1536.43 616.46V735.96C1347.74 786.5 1216 958.07 1216 1153.37V1154.01H1326.4V1807.56H1537.7V1051.5H1466.72C1503.69 985.92 1573.09 945.22 1648.13 945.22H1648.77V837.47C1822.46 837.82 1963.7 979.05 1964.04 1152.74H1856.29V1153.38C1856.29 1268.15 1762.91 1361.53 1648.14 1361.53H1647.5V1585.51H1648.14C1843.04 1585.51 2014.53 1454.1 2065.33 1265.87H2184.87L2184.98 1265.36C2192.63 1228.63 2196.51 1190.95 2196.51 1153.37C2196.51 851 1950.51 605 1648.13 605ZM1647.49 836.19C1609.83 836.26 1572.9 842.95 1537.7 856.06V736.93C1540.8 736.11 1543.93 735.35 1546.97 734.62C1549.6 733.98 1552.24 733.38 1554.88 732.79L1556.21 732.49C1558.86 731.9 1561.6 731.29 1564.31 730.76C1569.02 729.82 1573.94 728.94 1579.33 728.07C1581.9 727.66 1584.47 727.29 1587.06 726.92C1591.34 726.31 1595.77 725.74 1600.22 725.24C1600.92 725.16 1601.61 725.08 1602.3 724.99C1603.28 724.87 1604.27 724.75 1605.26 724.65C1610.71 724.1 1616.69 723.65 1623.54 723.25C1625.24 723.15 1626.95 723.07 1628.66 723C1635.83 722.68 1641.84 722.52 1647.5 722.51V836.19H1647.49ZM1536.42 1806.28H1327.67V1154.01H1439.98V1153.37C1439.98 1149.58 1440.11 1145.52 1440.38 1140.95C1440.43 1140.12 1440.5 1139.29 1440.56 1138.46L1440.65 1137.29C1440.89 1134.15 1441.18 1131.24 1441.52 1128.4C1441.67 1127.15 1441.82 1125.91 1441.99 1124.68C1442.44 1121.43 1442.98 1118.15 1443.58 1114.92C1443.64 1114.6 1443.7 1114.28 1443.75 1113.95C1443.82 1113.54 1443.89 1113.13 1443.97 1112.72C1444.81 1108.49 1445.76 1104.37 1446.78 1100.49L1446.91 1100.02C1447.88 1096.37 1448.98 1092.68 1450.27 1088.74C1450.42 1088.29 1450.57 1087.83 1450.73 1087.38L1450.97 1086.67C1452.14 1083.24 1453.38 1079.87 1454.65 1076.67L1454.89 1076.05C1455.01 1075.74 1455.13 1075.44 1455.26 1075.13C1458.39 1067.44 1461.98 1059.95 1465.95 1052.78H1536.39V1806.29L1536.42 1806.28ZM1327.67 1152.73V1052.77H1464.55C1460.71 1059.76 1457.19 1067.1 1454.12 1074.64C1453.99 1074.95 1453.87 1075.27 1453.75 1075.58L1453.51 1076.19C1452.22 1079.42 1450.98 1082.8 1449.8 1086.26L1449.56 1086.97C1449.4 1087.43 1449.25 1087.88 1449.1 1088.34C1447.8 1092.3 1446.69 1096.02 1445.71 1099.69L1445.58 1100.17C1444.55 1104.08 1443.6 1108.22 1442.75 1112.48C1442.67 1112.9 1442.59 1113.32 1442.52 1113.74C1442.47 1114.06 1442.41 1114.37 1442.35 1114.69C1441.74 1117.93 1441.2 1121.24 1440.75 1124.51C1440.58 1125.76 1440.42 1127 1440.27 1128.26C1439.93 1131.12 1439.64 1134.05 1439.4 1137.21L1439.31 1138.37C1439.24 1139.21 1439.17 1140.04 1439.12 1140.88C1438.86 1145.22 1438.73 1149.1 1438.72 1152.74H1327.68L1327.67 1152.73ZM1647.49 943.94C1571.99 944.17 1502.24 985.33 1465.24 1051.49H1326.4V1152.73H1217.27C1217.56 958.38 1348.67 787.71 1536.42 737.27V857.9L1537.28 857.58C1572.6 844.3 1609.67 837.53 1647.48 837.46V943.95L1647.49 943.94ZM2078.99 1154C2078.98 1159.64 2078.82 1165.64 2078.5 1172.81C2078.42 1174.57 2078.34 1176.32 2078.24 1178.07C2077.84 1185.06 2077.4 1190.85 2076.85 1196.29C2076.75 1197.32 2076.62 1198.35 2076.49 1199.37C2076.4 1200.09 2076.31 1200.81 2076.23 1201.53C2075.73 1205.95 2075.19 1210.23 2074.61 1214.27C2074.21 1217.06 2073.8 1219.84 2073.35 1222.61C2072.73 1226.41 2072.03 1230.19 2071.42 1233.39C2070.54 1238.04 2069.54 1242.87 2068.45 1247.73C2067.96 1249.89 2067.47 1252.04 2066.96 1254.19C2066.16 1257.5 2065.29 1261.05 2064.36 1264.58H1945.14C1958.46 1229.12 1965.25 1191.93 1965.32 1154H2079H2078.99ZM1648.77 1584.22V1362.79C1763.75 1362.45 1857.22 1268.98 1857.56 1154H1964.05C1963.97 1192.08 1957.1 1229.43 1943.62 1265L1943.29 1265.86H2064.01C2013.3 1453.15 1842.72 1583.93 1648.77 1584.22ZM2183.83 1264.58H2065.67C2066.59 1261.12 2067.43 1257.69 2068.2 1254.49C2068.72 1252.34 2069.21 1250.18 2069.7 1248.01C2070.8 1243.13 2071.8 1238.29 2072.68 1233.62C2073.29 1230.42 2073.99 1226.63 2074.62 1222.81C2075.07 1220.03 2075.48 1217.24 2075.88 1214.45C2076.46 1210.4 2077.01 1206.1 2077.51 1201.67C2077.59 1200.95 2077.68 1200.23 2077.77 1199.52C2077.9 1198.49 2078.02 1197.45 2078.13 1196.41C2078.68 1190.95 2079.12 1185.14 2079.52 1178.14C2079.62 1176.38 2079.71 1174.62 2079.79 1172.86C2080.13 1165.4 2080.29 1159.2 2080.29 1153.36V1152.72H1965.34C1964.99 978.33 1823.18 836.52 1648.79 836.17V721.22H1648.15C1642.29 721.22 1636.08 721.38 1628.62 721.72C1626.91 721.8 1625.2 721.88 1623.49 721.97C1616.62 722.36 1610.62 722.82 1605.16 723.37C1604.16 723.47 1603.17 723.59 1602.17 723.71C1601.48 723.79 1600.79 723.88 1600.1 723.95C1595.63 724.45 1591.19 725.02 1586.9 725.63C1584.31 726 1581.73 726.37 1579.15 726.79C1573.74 727.67 1568.81 728.55 1564.09 729.49C1561.36 730.03 1558.62 730.64 1555.96 731.23L1554.63 731.53C1551.98 732.12 1549.33 732.73 1546.69 733.37C1543.75 734.08 1540.72 734.81 1537.72 735.6V617.49C1573.9 610.04 1611.05 606.27 1648.15 606.27C1949.82 606.27 2195.25 851.7 2195.25 1153.37C2195.25 1190.69 2191.41 1228.11 2183.85 1264.59L2183.83 1264.58Z" fill="white"/>
</g>
<defs>
<linearGradient id="paint0_linear_83_6886" x1="2874" y1="827" x2="2874" y2="1525" gradientUnits="userSpaceOnUse">
<stop stop-color="#F3BA2F"/>
<stop offset="1" stop-color="white" stop-opacity="0"/>
</linearGradient>
<linearGradient id="paint1_linear_83_6886" x1="-188" y1="-220" x2="420.335" y2="385.325" gradientUnits="userSpaceOnUse">
<stop stop-color="#FE9E3D"/>
<stop offset="1" stop-color="white" stop-opacity="0"/>
</linearGradient>
<linearGradient id="paint2_linear_83_6886" x1="-55.5" y1="-52" x2="517.814" y2="513.279" gradientUnits="userSpaceOnUse">
<stop stop-color="#D7B4FF"/>
<stop offset="1" stop-color="white" stop-opacity="0"/>
</linearGradient>
<radialGradient id="paint3_radial_83_6886" cx="0" cy="0" r="1" gradientUnits="userSpaceOnUse" gradientTransform="translate(508.229 -48.8438) rotate(75.6323) scale(685.555 637.095)">
<stop stop-color="#C7AFF1"/>
<stop offset="1" stop-color="white" stop-opacity="0"/>
</radialGradient>
<radialGradient id="paint4_radial_83_6886" cx="0" cy="0" r="1" gradientUnits="userSpaceOnUse" gradientTransform="translate(493.5 73.3082) rotate(90) scale(486.595 490.76)">
<stop stop-color="#9EEEE9"/>
<stop offset="1" stop-color="white" stop-opacity="0"/>
</radialGradient>
<radialGradient id="paint5_radial_83_6886" cx="0" cy="0" r="1" gradientUnits="userSpaceOnUse" gradientTransform="translate(482.758 -5.2386e-05) rotate(89.5218) scale(770.474 668.549)">
<stop stop-color="#C9CEFF"/>
<stop offset="1" stop-color="white" stop-opacity="0"/>
</radialGradient>
<radialGradient id="paint6_radial_83_6886" cx="0" cy="0" r="1" gradientUnits="userSpaceOnUse" gradientTransform="translate(667 -3.45949e-05) rotate(90) scale(911.971 710.309)">
<stop stop-color="#FFD9EB"/>
<stop offset="1" stop-color="white" stop-opacity="0"/>
</radialGradient>
<clipPath id="clip0_83_6886">
<rect width="1920" height="1117" fill="white"/>
</clipPath>
</defs>
</svg>
